<svg xmlns="http://www.w3.org/2000/svg" xmlns:xlink="http://www.w3.org/1999/xlink" width="500" zoomAndPan="magnify" viewBox="0 0 375 374.999991" height="500" preserveAspectRatio="xMidYMid meet" version="1.0"><defs><g/></defs><path fill="#024547" d="M 51.75 0 L 323.25 0 C 336.976562 0 350.136719 5.453125 359.84375 15.15625 C 369.546875 24.863281 375 38.023438 375 51.75 L 375 323.25 C 375 351.832031 351.832031 375 323.25 375 L 51.75 375 C 38.023438 375 24.863281 369.546875 15.15625 359.84375 C 5.453125 350.136719 0 336.976562 0 323.25 L 0 51.75 C 0 23.167969 23.167969 0 51.75 0 " fill-opacity="1" fill-rule="nonzero"/><g fill="#ffffff" fill-opacity="1"><g transform="translate(63.503907, 299.089843)"><g><path d="M 230.796875 -118 C 230.796875 -111.0625 230.394531 -103.726562 229.59375 -96 L 54.40625 -96 C 55.738281 -74.394531 63.132812 -57.523438 76.59375 -45.390625 C 90.0625 -33.265625 106.394531 -27.203125 125.59375 -27.203125 C 141.332031 -27.203125 154.46875 -30.867188 165 -38.203125 C 175.53125 -45.535156 182.929688 -55.332031 187.203125 -67.59375 L 226.40625 -67.59375 C 220.53125 -46.53125 208.789062 -29.398438 191.1875 -16.203125 C 173.59375 -3.003906 151.726562 3.59375 125.59375 3.59375 C 104.800781 3.59375 86.203125 -1.070312 69.796875 -10.40625 C 53.398438 -19.738281 40.535156 -33.003906 31.203125 -50.203125 C 21.867188 -67.398438 17.203125 -87.332031 17.203125 -110 C 17.203125 -132.664062 21.734375 -152.53125 30.796875 -169.59375 C 39.867188 -186.664062 52.601562 -199.800781 69 -209 C 85.394531 -218.195312 104.257812 -222.796875 125.59375 -222.796875 C 146.394531 -222.796875 164.796875 -218.257812 180.796875 -209.1875 C 196.796875 -200.125 209.128906 -187.660156 217.796875 -171.796875 C 226.460938 -155.929688 230.796875 -138 230.796875 -118 Z M 193.203125 -125.59375 C 193.203125 -139.46875 190.132812 -151.40625 184 -161.40625 C 177.863281 -171.40625 169.53125 -179.003906 159 -184.203125 C 148.46875 -189.398438 136.800781 -192 124 -192 C 105.601562 -192 89.9375 -186.128906 77 -174.390625 C 64.0625 -162.660156 56.660156 -146.394531 54.796875 -125.59375 Z M 193.203125 -125.59375 "/></g></g></g></svg>